<svg
              width="41"
              height="32"
              viewBox="0 0 41 32"
              fill="none"
              xmlns="http://www.w3.org/2000/svg"
            >
              <path
                d="M0.0249939 16.3599C0.0249939 14.9792 1.14428 13.8599 2.52499 13.8599H37.525C38.9057 13.8599 40.025 14.9792 40.025 16.3599C40.025 17.7406 38.9057 18.8599 37.525 18.8599H2.52499C1.14428 18.8599 0.0249939 17.7406 0.0249939 16.3599Z"
                fill="#FAFAFA"
              />
              <path
                d="M0.0249939 3.35986C0.0249939 1.97915 1.14428 0.859863 2.52499 0.859863H37.525C38.9057 0.859863 40.025 1.97915 40.025 3.35986C40.025 4.74058 38.9057 5.85986 37.525 5.85986H2.52499C1.14428 5.85986 0.0249939 4.74058 0.0249939 3.35986Z"
                fill="#FAFAFA"
              />
              <path
                d="M0.0249939 29.3599C0.0249939 27.9792 1.14428 26.8599 2.52499 26.8599H37.525C38.9057 26.8599 40.025 27.9792 40.025 29.3599C40.025 30.7406 38.9057 31.8599 37.525 31.8599H2.52499C1.14428 31.8599 0.0249939 30.7406 0.0249939 29.3599Z"
                fill="#FAFAFA"
              />
            </svg>